<svg width="22" height="23" viewBox="0 0 22 23" fill="none" xmlns="http://www.w3.org/2000/svg">
	<path d="M11.3409 0C9.44517 0 7.89087 1.5543 7.89087 3.45H4.29487C4.24321 3.44102 4.19155 3.43652 4.13989 3.43652C4.09722 3.43877 4.05679 3.44326 4.01636 3.45H1.85337C1.54341 3.44551 1.25366 3.60947 1.09644 3.87676C0.939209 4.14629 0.939209 4.47871 1.09644 4.74824C1.25366 5.01553 1.54341 5.17949 1.85337 5.175H3.29087V19.8375C3.29087 21.5737 4.71714 23 6.45337 23H16.2284C17.9646 23 19.3909 21.5737 19.3909 19.8375V5.175H20.8284C21.1383 5.17949 21.4281 5.01553 21.5853 4.74824C21.7425 4.47871 21.7425 4.14629 21.5853 3.87676C21.4281 3.60947 21.1383 3.44551 20.8284 3.45H18.6699C18.5778 3.43428 18.4834 3.43428 18.3914 3.45H14.7909C14.7909 1.5543 13.2366 0 11.3409 0ZM11.3409 1.725C12.3044 1.725 13.0659 2.48643 13.0659 3.45H9.61587C9.61587 2.48643 10.3773 1.725 11.3409 1.725ZM5.01587 5.175H17.6659V19.8375C17.6659 20.6416 17.0325 21.275 16.2284 21.275H6.45337C5.64927 21.275 5.01587 20.6416 5.01587 19.8375V5.175ZM9.31489 8.03877C8.83872 8.04551 8.45913 8.43633 8.46587 8.9125V17.5375C8.46138 17.8475 8.62534 18.1372 8.89263 18.2944C9.16216 18.4517 9.49458 18.4517 9.76411 18.2944C10.0314 18.1372 10.1954 17.8475 10.1909 17.5375V8.9125C10.1931 8.67891 10.1033 8.4543 9.93706 8.29033C9.7731 8.12412 9.54849 8.03428 9.31489 8.03877ZM13.3399 8.03877C12.8637 8.04551 12.4841 8.43633 12.4909 8.9125V17.5375C12.4864 17.8475 12.6503 18.1372 12.9176 18.2944C13.1872 18.4517 13.5196 18.4517 13.7891 18.2944C14.0564 18.1372 14.2204 17.8475 14.2159 17.5375V8.9125C14.2181 8.67891 14.1283 8.4543 13.9621 8.29033C13.7981 8.12412 13.5735 8.03428 13.3399 8.03877Z" fill="#E7EAF2"/>
</svg>
